<?xml version="1.0" encoding="UTF-8"?>
<svg id="Calque_1" xmlns="http://www.w3.org/2000/svg" version="1.1" viewBox="0 0 64 64">
  <!-- Generator: Adobe Illustrator 30.0.0, SVG Export Plug-In . SVG Version: 2.1.1 Build 123)  -->
  <defs>
    <style>
      .st0 {
        opacity: .22;
      }

      .st0, .st1 {
        fill: #fff;
      }

      .st2 {
        fill: #1b7dae;
      }

      .st3 {
        fill: #1579a0;
      }
    </style>
  </defs>
  <path class="st3" d="M59.68,63.98H4.28C1.94,63.98.04,62.08.04,59.75V4.35C.04,2.01,1.94.11,4.28.11h55.4c2.33,0,4.23,1.9,4.23,4.23v55.4c0,2.33-1.9,4.23-4.23,4.23ZM4.28.63C2.23.63.56,2.3.56,4.35v55.4c0,2.05,1.67,3.71,3.71,3.71h55.4c2.05,0,3.71-1.67,3.71-3.71V4.35c0-2.05-1.67-3.71-3.71-3.71H4.28Z"/>
  <rect class="st2" x=".3" y=".4" width="63.35" height="63.35" rx="3.97" ry="3.97"/>
  <path class="st0" d="M63.6,3.7s-1.31-2.57-3.46-2.56c-1.35.01-55.96-.04-55.96-.04,0,0-3.04.32-3.86,2.66C.88,1.43,2.8.42,4.28.39s55.65.03,55.65.03c0,0,3.17.17,3.66,3.28Z"/>
  <path class="st1" d="M39.93,11.24c2.47.41,4.32,2.3,4.54,4.83v31.72c-.15,2.42-1.75,4.35-4.12,4.88-5.16-.06-10.74.43-15.88.11-2.71-.17-4.76-2.2-4.99-4.91v-31.8c.16-2.37,2.15-4.57,4.55-4.83h15.9ZM42.12,18.21h-20.28v24.01h20.28v-24.01ZM31.47,44.76c-2.89.46-2.12,5.44,1.16,4.57,2.75-.73,2.07-5.08-1.16-4.57Z"/>
  <rect class="st1" x="24.46" y="25.81" width="15.08" height="3.77" rx="1.51" ry="1.51"/>
  <rect class="st1" x="27.24" y="31.35" width="9.5" height="3.77" rx="1.2" ry="1.2"/>
</svg>