<?xml version="1.0" encoding="UTF-8"?>
<svg id="Calque_1" xmlns="http://www.w3.org/2000/svg" xmlns:xlink="http://www.w3.org/1999/xlink" version="1.1" viewBox="0 0 64 64">
  <!-- Generator: Adobe Illustrator 30.0.0, SVG Export Plug-In . SVG Version: 2.1.1 Build 123)  -->
  <defs>
    <style>
      .st0 {
        fill: #ebebeb;
      }

      .st1 {
        opacity: .22;
      }

      .st1, .st2 {
        fill: #fff;
      }

      .st3 {
        fill: #1b7dae;
      }

      .st4 {
        fill: #1579a0;
      }

      .st5 {
        fill: url(#Dégradé_sans_nom);
      }

      .st6 {
        fill: #134489;
        fill-rule: evenodd;
      }
    </style>
    <linearGradient id="Dégradé_sans_nom" data-name="Dégradé sans nom" x1="46.61" y1="34.03" x2="46.61" y2=".34" gradientTransform="translate(0 64) scale(1 -1)" gradientUnits="userSpaceOnUse">
      <stop offset="0" stop-color="#f2f4f4"/>
      <stop offset="1" stop-color="#e8e8e8"/>
    </linearGradient>
  </defs>
  <g>
    <path class="st4" d="M59.68,63.98H4.28C1.94,63.98.04,62.08.04,59.75V4.35C.04,2.01,1.94.11,4.28.11h55.4c2.33,0,4.23,1.9,4.23,4.23v55.4c0,2.33-1.9,4.23-4.23,4.23ZM4.28.63C2.23.63.56,2.3.56,4.35v55.4c0,2.05,1.67,3.71,3.71,3.71h55.4c2.05,0,3.71-1.67,3.71-3.71V4.35c0-2.05-1.67-3.71-3.71-3.71H4.28Z"/>
    <rect class="st3" x=".3" y=".4" width="63.35" height="63.35" rx="3.97" ry="3.97"/>
    <path class="st1" d="M63.6,3.7s-1.31-2.57-3.46-2.56c-1.35.01-55.96-.04-55.96-.04,0,0-3.04.32-3.86,2.66C.88,1.43,2.8.42,4.28.39s55.65.03,55.65.03c0,0,3.17.17,3.66,3.28Z"/>
    <path class="st2" d="M39.93,11.24c2.47.41,4.32,2.3,4.54,4.83v31.72c-.15,2.42-1.75,4.35-4.12,4.88-5.16-.06-10.74.43-15.88.11-2.71-.17-4.76-2.2-4.99-4.91v-31.8c.16-2.37,2.15-4.57,4.55-4.83h15.9ZM42.12,18.21h-20.28v24.01h20.28v-24.01ZM31.47,44.76c-2.89.46-2.12,5.44,1.16,4.57,2.75-.73,2.07-5.08-1.16-4.57Z"/>
    <rect class="st2" x="24.46" y="25.81" width="15.08" height="3.77" rx="1.51" ry="1.51"/>
    <rect class="st2" x="27.24" y="31.35" width="9.5" height="3.77" rx="1.2" ry="1.2"/>
  </g>
  <g>
    <path class="st0" d="M59.75,63.89h-30.13v-.52h30.09s1.78.05,2.91-1.42c.81-1.01.76-2.2.76-2.21v-29.74h.52v29.74s.06,1.37-.87,2.53c-1.19,1.55-2.94,1.62-3.28,1.62Z"/>
    <path class="st5" d="M59.66,63.65h-30.05s-.69-12.53,10.36-24.09c10.68-10.76,21.84-9.55,23.65-9.55-.04,18.79-.07,29.69-.07,29.69,0,0,0,1.27-.83,2.39-1.13,1.51-3.05,1.57-3.05,1.57h-.01Z"/>
    <path id="path-8" class="st6" d="M46.86,53.1h1.56c.69,0,1.02-.25,1.17-.25.13,0,.23.1.23.31,0,.23-.25,1.27-.43,1.6-.13.23-.25.33-.69.33h-1.83c0,.52.02.88.03,1.06.02.64.14,1.65.34,1.93.33.48,1.34,1.02,3.35,1.02,2.59,0,4.32-.51,5.85-1.83,1.63-1.4,2.14-3.71,2.14-6.33,0-3.23-1.35-5.32-2.44-6.36-2.34-2.24-5.24-2.54-7.22-2.54-.51,0-1.53.08-1.73.18-.23.1-.32.23-.32.51v10.39h0v-.02h0ZM43.77,45.24c-.58.74-5.78,6.71-6.64,7.86h5.83v1.98h-7.9c-.31,0-.64-.1-.64-.38,0-.31.23-.53.33-.66.18-.2,10.51-12.6,10.73-12.85.41-.47.58-.58.86-.57.43.02.37.34,1.05.26.06,0,.92-.06,1.92-.06,3.18,0,7.43,0,10.2,2.9,1.27,1.32,2.47,3.43,2.47,6.46,0,3.2-1.35,5.65-2.77,7.1-1.17,1.2-3.82,2.87-8.53,2.87h-9.24c-.28,0-.36-.11-.36-.29s.08-.33.2-.33c.23,0,.79-.02,1.2-.08.97-.1,1.15-.5,1.2-1.29.08-1.38.08-3.07.08-3.07v-9.85h0Z"/>
  </g>
</svg>