<?xml version="1.0" encoding="utf-8" standalone="yes"?>
<svg xmlns="http://www.w3.org/2000/svg" xmlns:xlink="http://www.w3.org/1999/xlink">
    <symbol id="a">
        <image height="30" width="30" xlink:href="$4DEVAL(tmpl_cancel)"/>
    </symbol>
    <path d="m11 53h244v180h-244z"/>
    <g transform="translate(0 50)">
        <circle cx="132" cy="50" r="35"/>
        <circle cx="132" cy="50" r="35" stroke-dasharray="5 2"/>
        <use visibility="hidden" x="118" xlink:href="#a" y="14"/>
    </g>
    <g transform="translate(0 150)">
        <path d="m15 0h236v30h-236z"/>
        <path d="m15 0h236v30h-236z" stroke-dasharray="5 2"/>
        <use visibility="hidden" x="220" xlink:href="#a" y="1"/>
    </g>
    <g transform="translate(0 190)">
        <path d="m15 0h236v30h-236z"/>
        <path d="m15 0h236v30h-236z" stroke-dasharray="5 2"/>
        <use visibility="hidden" x="220" xlink:href="#a" y="1"/>
    </g>
    <path d="m80 250h50v20h-50z"/>
    <path d="m140 250h50v20h-50z"/>
    <g>
        <g transform="translate(0 280)">
            <path d="m14 0h238v30h-238z"/>
            <path d="m14 0h238v30h-238z" stroke-dasharray="5 2"/>
            <use visibility="hidden" x="224" xlink:href="#a" y="1"/>
        </g>
        <g transform="translate(0 320)">
            <path d="m14 0h238v30h-238z"/>
            <path d="m14 0h238v30h-238z" stroke-dasharray="5 2"/>
            <use visibility="hidden" x="224" xlink:href="#a" y="1"/>
        </g>
    </g>
    <g visibility="hidden">
        <g transform="translate(0 280)">
            <path d="m14 0h110v30h-110z"/>
            <path d="m14 0h110v30h-110z" stroke-dasharray="5 2"/>
            <use visibility="hidden" x="96" xlink:href="#a" y="1"/>
        </g>
        <g transform="translate(125 280)">
            <path d="m14 0h110v30h-110z"/>
            <path d="m14 0h110v30h-110z" stroke-dasharray="5 2"/>
            <use visibility="hidden" x="96" xlink:href="#a" y="1"/>
        </g>
    </g>
</svg>
