<svg xmlns="http://www.w3.org/2000/svg" width="32" height="32" viewBox="0 0 32 32"><path fill="#212121" d="M21.3338805,4.81743931 L21.3943735,4.91739904 L21.4506948,5.01976762 L21.7866672,5.6613995 C21.9461977,5.96606686 22.249223,6.16463667 22.5860906,6.19380099 L22.7137882,6.19667308 L23.437444,6.16681781 C25.001204,6.10230305 26.3211815,7.3176814 26.3856963,8.88144122 L26.3881049,8.99825571 L26.3856963,9.11507007 L26.355841,9.83872586 C26.3416647,10.1823408 26.5048075,10.5058199 26.7819613,10.6995108 L26.8911146,10.7658469 L27.5327465,11.1018193 C28.9192598,11.827828 29.4547046,13.5403652 28.728696,14.9268787 L28.6723748,15.0292471 L28.6118817,15.1292068 L28.2241984,15.7409835 C28.040114,16.0314746 28.0196601,16.3931871 28.1628369,16.6995052 L28.2241984,16.8115306 L28.6118817,17.4233073 C29.4496331,18.7453058 29.0570733,20.496129 27.7350748,21.3338804 L27.635115,21.3943735 L27.5327465,21.4506948 L26.8911146,21.7866672 C26.5864472,21.9461977 26.3878774,22.249223 26.3587131,22.5860906 L26.355841,22.7137882 L26.3856963,23.437444 C26.4502111,25.001204 25.2348327,26.3211815 23.6710729,26.3856963 L23.5542584,26.3881049 L23.437444,26.3856963 L22.7137882,26.355841 C22.3701733,26.3416647 22.0466942,26.5048075 21.8530033,26.7819613 L21.7866672,26.8911146 L21.4506948,27.5327465 C20.7246861,28.9192598 19.0121489,29.4547046 17.6256354,28.728696 L17.523267,28.6723748 L17.4233073,28.6118817 L16.8115305,28.2241984 C16.5210395,28.040114 16.159327,28.0196601 15.8530089,28.1628369 L15.7409835,28.2241984 L15.1292068,28.6118817 C13.8072083,29.4496331 12.0563851,29.0570733 11.2186336,27.7350748 L11.1581406,27.635115 L11.1018193,27.5327465 L10.7658469,26.8911146 C10.6063164,26.5864472 10.3032911,26.3878774 9.96642343,26.3587131 L9.83872588,26.355841 L9.11507007,26.3856963 C7.55131008,26.4502111 6.23133258,25.2348327 6.16681781,23.6710727 L6.16440918,23.5542583 L6.16681781,23.437444 L6.19667308,22.7137882 C6.21084932,22.3701733 6.04770658,22.0466941 5.77055284,21.8530033 L5.66139958,21.7866672 L5.01976754,21.4506948 C3.6332543,20.7246861 3.09780948,19.0121489 3.823818,17.6256357 L3.88013924,17.5232671 L3.94063235,17.4233073 L4.3283157,16.8115305 C4.51240011,16.5210395 4.53285393,16.1593269 4.38967716,15.8530089 L4.32831569,15.7409835 L3.94063235,15.1292068 C3.10288094,13.8072083 3.49544076,12.0563851 4.81743931,11.2186336 L4.91739904,11.1581406 L5.01976762,11.1018193 L5.6613995,10.7658469 C5.96606686,10.6063164 6.16463667,10.3032911 6.19380099,9.96642342 L6.19667308,9.83872586 L6.16681781,9.11507005 C6.10230304,7.55131007 7.31768143,6.23133258 8.88144138,6.16681781 L8.99825573,6.16440918 L9.11507005,6.16681781 L9.83872586,6.19667308 C10.1823408,6.21084932 10.5058199,6.04770658 10.6995108,5.77055284 L10.7658469,5.66139958 L11.1018193,5.01976754 C11.827828,3.6332543 13.5403652,3.09780948 14.9268784,3.823818 L15.0292469,3.88013924 L15.1292068,3.94063235 L15.7409835,4.3283157 C16.0314746,4.51240011 16.3931871,4.53285393 16.6995052,4.38967717 L16.8115305,4.3283157 L17.4233073,3.94063235 C18.7453058,3.10288094 20.496129,3.49544076 21.3338805,4.81743931 Z M18.6970374,5.53649554 L18.5935027,5.57585447 L18.4938544,5.62998989 L17.8820777,6.01767322 C16.9593413,6.60241199 15.7970641,6.63680839 14.8461465,6.12086242 L14.6704364,6.01767322 L14.0286758,5.61186133 L13.9991255,5.59561781 C13.6251481,5.39979512 13.170562,5.5158642 12.9328493,5.85081377 L12.8736191,5.94752056 L12.5376466,6.5891525 C12.0309028,7.55691935 11.0415395,8.16784605 9.96004765,8.19648259 L9.75628363,8.19497318 L9.0255597,8.16498065 L8.96388365,8.16511791 C8.5391489,8.18264084 8.2017597,8.51493094 8.16729768,8.92785298 L8.16511791,9.03262782 L8.19497318,9.75628363 C8.24000358,10.8477662 7.68865319,11.8715259 6.76637204,12.4370717 L6.58915252,12.5376466 L5.88798636,12.9079912 C5.53141027,13.1339538 5.40463599,13.5856714 5.57585447,13.9590114 L5.62998989,14.0586597 L6.01767322,14.6704364 C6.60241199,15.5931728 6.63680839,16.7554499 6.12086242,17.7063676 L6.01767322,17.8820777 L5.59561781,18.5533886 C5.39979512,18.9273659 5.5158642,19.381952 5.85081377,19.6196648 L5.94752056,19.678895 L6.5891525,20.0148675 C7.55691934,20.5216113 8.16784605,21.5109746 8.19648259,22.5924664 L8.19497318,22.7962304 L8.16498065,23.5269544 L8.16511791,23.5886304 C8.18264084,24.0133651 8.51493095,24.3507544 8.92785296,24.3852164 L9.0326278,24.3873962 L9.75628361,24.3575409 C10.8477662,24.3125105 11.8715259,24.8638609 12.4370717,25.786142 L12.5376466,25.9633616 L12.9079912,26.6645277 C13.1339537,27.0211038 13.5856714,27.147878 13.9590114,26.9766596 L14.0586597,26.9225241 L14.6704364,26.5348408 C15.5931728,25.9501021 16.7554499,25.9157057 17.7063676,26.4316517 L17.8820777,26.5348408 L18.5376624,26.9483257 L18.5533886,26.9568963 C18.9273659,27.152719 19.381952,27.0366499 19.6196648,26.7017003 L19.678895,26.6049935 L20.0148675,25.9633616 C20.5216113,24.9955947 21.5109746,24.384668 22.5924664,24.3560315 L22.7962304,24.3575409 L23.5542583,24.3881049 L23.5886304,24.3873962 C24.0133651,24.3698733 24.3507544,24.0375831 24.3852164,23.6246611 L24.3873962,23.5198863 L24.3575409,22.7962304 C24.3125105,21.7047479 24.8638609,20.6809882 25.786142,20.1154423 L25.9633616,20.0148675 L26.6645277,19.6445229 C27.0211038,19.4185603 27.147878,18.9668427 26.9766596,18.5935027 L26.9225241,18.4938544 L26.5348408,17.8820777 C25.9501021,16.9593413 25.9157057,15.7970642 26.4316517,14.8461465 L26.5348408,14.6704364 L26.9568963,13.9991255 C27.152719,13.6251481 27.0366499,13.170562 26.7017003,12.9328493 L26.6049935,12.8736191 L25.9633616,12.5376466 C24.9955947,12.0309028 24.384668,11.0415395 24.3560315,9.96004763 L24.3575409,9.75628361 L24.3881049,8.99825574 L24.3873962,8.96388367 C24.3698733,8.53914892 24.0375831,8.2017597 23.6246611,8.16729768 L23.5198863,8.16511791 L22.7962304,8.19497318 C21.7047479,8.24000359 20.6809882,7.68865318 20.1154423,6.76637204 L20.0148675,6.58915252 L19.6445229,5.88798636 C19.4391024,5.56382627 19.0471074,5.42958505 18.6970374,5.53649554 Z M19.276257,17.276257 C20.3808265,17.276257 21.276257,18.1716876 21.276257,19.276257 C21.276257,20.3808265 20.3808265,21.276257 19.276257,21.276257 C18.1716876,21.276257 17.276257,20.3808265 17.276257,19.276257 C17.276257,18.1716876 18.1716876,17.276257 19.276257,17.276257 Z M19.1832355,12.6248747 L19.9379451,13.2809337 L13.3773548,20.8280295 L12.6226452,20.1719705 L19.1832355,12.6248747 Z M19.276257,18.276257 C18.7239723,18.276257 18.276257,18.7239723 18.276257,19.276257 C18.276257,19.8285418 18.7239723,20.276257 19.276257,20.276257 C19.8285418,20.276257 20.276257,19.8285418 20.276257,19.276257 C20.276257,18.7239723 19.8285418,18.276257 19.276257,18.276257 Z M13.276257,12.276257 C14.3808265,12.276257 15.276257,13.1716876 15.276257,14.276257 C15.276257,15.3808265 14.3808265,16.276257 13.276257,16.276257 C12.1716876,16.276257 11.276257,15.3808265 11.276257,14.276257 C11.276257,13.1716876 12.1716876,12.276257 13.276257,12.276257 Z M13.276257,13.276257 C12.7239723,13.276257 12.276257,13.7239723 12.276257,14.276257 C12.276257,14.8285418 12.7239723,15.276257 13.276257,15.276257 C13.8285418,15.276257 14.276257,14.8285418 14.276257,14.276257 C14.276257,13.7239723 13.8285418,13.276257 13.276257,13.276257 Z"/></svg>