<?xml version="1.0" encoding="UTF-8"?>
<svg width="25px" height="20px" viewBox="0 0 25 20" version="1.1" xmlns="http://www.w3.org/2000/svg" xmlns:xlink="http://www.w3.org/1999/xlink">
    <title>Shape</title>
    <g id="Dark" stroke="none" stroke-width="1" fill="none" fill-rule="evenodd">
        <g id="Slices" transform="translate(-307.000000, -286.000000)" fill="#BABABA" fill-rule="nonzero">
            <g id="close" transform="translate(307.000000, 286.000000)">
                <path d="M10,0 C4.5,0 0,4.5 0,10 C0,15.5 4.5,20 10,20 C15.5,20 20,15.5 20,10 C20,4.5 15.5,0 10,0 Z M14.9,13.5 L13.5,14.9 L10,11.4 L6.5,14.9 L5.1,13.5 L8.6,10 L5.1,6.5 L6.5,5.1 L10,8.6 L13.5,5.1 L14.9,6.5 L11.4,10 L14.9,13.5 L14.9,13.5 Z" id="Shape"></path>
            </g>
        </g>
    </g>
</svg>