<svg xmlns="http://www.w3.org/2000/svg" width="32" height="32" viewBox="0 0 32 32"><path fill="#212121" d="M14.6330633,5.52122325 C15.0120573,4.82625892 16.0099427,4.82625892 16.3889367,5.52122325 L16.3889367,5.52122325 L19.276,10.816 L25.206103,11.927093 C25.9452249,12.0655339 26.260447,12.928925 25.8238817,13.5080682 L25.8238817,13.5080682 L25.748655,13.5970025 L21.604,17.98 L22.3806902,23.9613508 C22.4776722,24.7089353 21.7500972,25.2765053 21.0628731,25.0356669 L21.0628731,25.0356669 L20.9602003,24.9933996 L15.511,22.406 L10.0617997,24.9933996 C9.38077302,25.3166498 8.61614998,24.8000719 8.63283859,24.0720598 L8.63283859,24.0720598 L8.64130984,23.9613508 L9.417,17.98 L5.27334498,13.5970025 C4.75673592,13.0505758 5.00917147,12.1667854 5.70276409,11.9548295 L5.70276409,11.9548295 L5.81589704,11.927093 L11.745,10.816 Z M15.511,8.087 L13.2739367,12.1907767 C13.1301161,12.4545017 12.8753601,12.639604 12.580103,12.694907 L12.580103,12.694907 L7.986,13.555 L11.196655,16.9509975 C11.3735407,17.1380926 11.4703054,17.384849 11.4700066,17.6391256 L11.4700066,17.6391256 L11.4616902,17.7666492 L10.86,22.4 L15.0822003,20.3966004 C15.3147931,20.2861999 15.5793631,20.2704284 15.8210923,20.3492859 L15.8210923,20.3492859 L15.9397997,20.3966004 L20.161,22.4 L19.5603098,17.7666492 C19.5271859,17.5113142 19.5939493,17.2548093 19.7436573,17.0492754 L19.7436573,17.0492754 L19.825345,16.9509975 L23.035,13.555 L18.441897,12.694907 C18.1888195,12.6475044 17.9654979,12.5047391 17.8162873,12.2988389 L17.8162873,12.2988389 L17.7480633,12.1907767 L15.511,8.087 Z"/></svg>