<svg version="1.1" xmlns="http://www.w3.org/2000/svg" width="32" height="32" viewBox="0 0 32 32">
  <g fill="none" fill-rule="evenodd">
    <path fill="#212121" fill-rule="nonzero" d="M 14.551577 3.055159 C 10.728023 3.489847 7.287038 5.599075 5.166733 8.797682 C 3.712605 10.988117 3.005837 13.352373 3 16.000584 C 3 17.263786 3.098428 18.057796 3.405649 19.274559 C 4.210845 22.438667 6.319476 25.318554 9.106223 27.045372 C 11.116427 28.291323 13.213652 28.922924 15.571403 28.992451 C 18.022011 29.067822 20.084213 28.581116 22.227865 27.42778 C 25.819544 25.486538 28.281826 21.928608 28.895735 17.796932 C 29.034756 16.852449 29.034756 15.14872 28.895735 14.204237 C 28.00909 8.229773 23.345589 3.715685 17.361139 3.049318 C 16.747229 2.979792 15.171326 2.985628 14.551577 3.055159 Z M 15.362608 7.482201 L 15.362608 10.060884 L 13.300139 10.060884 L 11.243507 10.060884 L 11.2841 9.927664 C 11.347772 9.713238 11.764829 8.901976 12.072051 8.391918 C 12.738227 7.285025 13.804216 6.074102 14.800695 5.303179 C 15.084571 5.082914 15.327854 4.903254 15.339528 4.903254 C 15.350935 4.903519 15.362608 6.062691 15.362608 7.482201 Z M 17.23963 5.390488 C 18.172438 6.15531 18.983471 7.053616 19.649647 8.061789 C 20.026112 8.635536 20.692554 9.869812 20.692554 9.997192 C 20.692554 10.043634 20.078377 10.060884 18.664841 10.060884 L 16.637127 10.060884 L 16.637127 7.511127 C 16.637127 6.108868 16.654371 4.96137 16.677717 4.96137 C 16.694963 4.961637 16.949919 5.15271 17.23963 5.390488 Z M 20.083948 5.407738 C 21.816114 6.091618 23.415098 7.215761 24.556166 8.566008 C 25.00798 9.099152 25.616322 9.927664 25.616322 10.008869 C 25.616322 10.043634 24.880636 10.055311 23.8494 10.049473 L 22.082479 10.032223 L 21.80444 9.394785 C 21.190529 7.986685 20.321396 6.688721 19.261242 5.593502 C 18.965694 5.286459 18.72241 5.025593 18.72241 5.002504 C 18.722677 4.949961 19.510626 5.187473 20.083948 5.407738 Z M 12.865838 5.349884 C 12.292253 5.940884 11.73034 6.630602 11.307446 7.268042 C 10.91347 7.853201 10.264539 9.087742 9.992337 9.754107 L 9.864991 10.06115 L 8.126988 10.06115 C 7.15359 10.06115 6.383149 10.038061 6.383149 10.008869 C 6.383149 9.921825 7.032082 9.041035 7.501138 8.496477 C 8.619126 7.192673 10.30513 6.022089 11.944439 5.407738 C 12.651208 5.14687 12.992919 5.031166 13.10302 5.025328 C 13.149713 5.019489 13.039612 5.170225 12.865838 5.349884 Z M 9.453506 11.32435 C 9.453506 11.347439 9.389832 11.654747 9.30865 12.002392 C 9.123203 12.825331 8.990021 13.787062 8.943592 14.662281 L 8.903267 15.363146 L 6.806043 15.380394 L 4.703248 15.392338 L 4.703248 15.090866 C 4.703248 14.227325 5.224569 12.152863 5.630218 11.393879 C 5.688054 11.283749 5.757564 11.27791 7.570913 11.27791 C 8.607718 11.27791 9.453506 11.295424 9.453506 11.32435 Z M 15.362608 13.335123 L 15.362608 15.392338 L 12.755737 15.392338 L 10.148867 15.392338 L 10.148867 15.172073 C 10.148867 14.262356 10.450251 12.367287 10.73386 11.463409 L 10.797533 11.27791 L 13.079938 11.27791 L 15.362344 11.27791 L 15.362344 13.335123 Z M 21.260038 11.538776 C 21.497749 12.239906 21.758278 13.746725 21.827789 14.7955 L 21.86838 15.392338 L 19.249834 15.392338 L 16.637127 15.392338 L 16.637127 13.335123 L 16.637127 11.27791 L 18.908123 11.289585 L 21.184958 11.306835 L 21.260038 11.538776 Z M 26.549128 11.828304 C 26.937265 12.80755 27.209469 13.949209 27.278976 14.88228 L 27.313732 15.392338 L 25.205101 15.380661 L 23.096468 15.363411 L 23.055878 14.668119 C 23.003878 13.82793 22.876266 12.906536 22.691086 12.060511 C 22.609903 11.712866 22.546228 11.388308 22.546228 11.347704 C 22.546228 11.289852 22.940205 11.278175 24.446333 11.289852 L 26.340862 11.3071 L 26.549128 11.828304 Z M 8.943857 17.275463 C 9.013368 18.283901 9.27416 19.859983 9.488525 20.595879 L 9.52328 20.723259 L 7.594259 20.711582 L 5.659401 20.694334 L 5.439199 20.143673 C 5.050796 19.170528 4.703248 17.640625 4.703248 16.881374 L 4.703248 16.609097 L 6.806043 16.620773 L 8.903267 16.638023 L 8.943857 17.275463 Z M 15.362608 18.666309 L 15.362608 20.723526 L 13.10912 20.723526 C 11.811522 20.723526 10.838124 20.700436 10.820879 20.671513 C 10.797797 20.642586 10.704942 20.306351 10.61235 19.929779 C 10.426904 19.193882 10.235885 18.00605 10.177784 17.142508 L 10.137192 16.609364 L 12.749901 16.609364 L 15.362608 16.609364 L 15.362608 18.666309 Z M 21.821951 17.171169 C 21.746605 18.266386 21.57283 19.338514 21.323711 20.27132 L 21.201935 20.723259 L 18.919531 20.723259 L 16.637127 20.723259 L 16.637127 18.666046 L 16.637127 16.608833 L 19.249834 16.608833 L 21.862541 16.608833 L 21.821951 17.171169 Z M 27.279243 17.136406 C 27.209732 18.075048 26.844675 19.529587 26.450964 20.416216 L 26.317781 20.723259 L 24.434925 20.723259 C 23.322773 20.723259 22.546495 20.700172 22.546495 20.671246 C 22.546495 20.642319 22.610168 20.323599 22.685514 19.958439 C 22.87096 19.118252 22.99247 18.196857 23.038898 17.391434 C 23.061979 17.037949 23.08506 16.719231 23.102571 16.678627 C 23.120081 16.626347 23.589136 16.609097 25.217039 16.609097 L 27.313995 16.609097 L 27.279243 17.136406 Z M 10.050173 22.241756 C 10.687432 23.812 11.753421 25.43479 12.923674 26.622623 C 13.126367 26.825371 13.277059 26.999195 13.265385 27.010872 C 13.236467 27.039799 12.228314 26.715506 11.753421 26.524168 C 10.12552 25.86948 8.544045 24.733658 7.443302 23.435429 C 6.99149 22.908119 6.383149 22.073771 6.383149 21.992565 C 6.383149 21.963638 7.147754 21.940285 8.155907 21.940285 L 9.922828 21.940285 L 10.050173 22.241756 Z M 15.362608 24.490042 C 15.362608 25.892302 15.345364 27.039799 15.327854 27.039799 C 15.252507 27.039799 14.551577 26.460213 14.093927 26.025785 C 13.126367 25.104393 12.275007 23.956898 11.649157 22.717049 C 11.463709 22.34605 11.307446 22.021757 11.307446 21.99283 C 11.307446 21.963903 12.211069 21.94055 13.33516 21.94055 L 15.362874 21.94055 L 15.362874 24.490042 Z M 20.750391 21.986725 C 20.750391 22.091021 19.997194 23.516632 19.70191 23.968575 C 19.052979 24.959496 18.160765 25.95042 17.303568 26.628462 C 16.550371 27.225296 16.63739 27.491737 16.63739 24.519234 L 16.63739 21.94055 L 18.694023 21.94055 C 19.82342 21.940285 20.750391 21.963638 20.750391 21.986725 Z M 25.616585 21.992565 C 25.616585 22.073771 25.008245 22.908119 24.556435 23.435429 C 23.600544 24.565409 22.198683 25.631699 20.802391 26.280815 C 20.350578 26.495241 19.012388 26.981945 18.884777 26.981945 C 18.85586 26.981945 19.052713 26.738594 19.331017 26.442963 C 19.91044 25.83445 20.495434 25.075466 20.93 24.368498 C 21.231119 23.881794 21.885889 22.572151 22.030745 22.154976 L 22.106092 21.94055 L 23.861338 21.94055 C 24.857552 21.940285 25.616585 21.963638 25.616585 21.992565 Z"/>
  </g>
</svg>