<?xml version="1.0" encoding="UTF-8"?>
<svg width="32px" height="32px" viewBox="0 0 32 32" version="1.1" xmlns="http://www.w3.org/2000/svg" xmlns:xlink="http://www.w3.org/1999/xlink">
    <title>sort</title>
    <g id="sort" stroke="none" stroke-width="1" fill="none" fill-rule="evenodd">
        <path d="M10.1992188,26.2880859 C10.4928385,26.2880859 10.7327474,26.1914062 10.9189453,25.9980469 C11.1051432,25.8046875 11.1982422,25.5647786 11.1982422,25.2783203 L11.1982422,12.4199219 L11.1123047,10.1855469 L12.5839844,11.8828125 L14.6894531,14.0742188 C14.8828125,14.2604167 15.1155599,14.3535156 15.3876953,14.3535156 C15.6813151,14.3535156 15.921224,14.262207 16.1074219,14.0795898 C16.2936198,13.8969727 16.3867188,13.6588542 16.3867188,13.3652344 C16.3867188,13.078776 16.2828776,12.828125 16.0751953,12.6132812 L10.9511719,7.38183594 C10.7434896,7.16699219 10.4946289,7.05777995 10.2045898,7.05411396 C9.91455078,7.05061849 9.66210938,7.15983073 9.44726562,7.38183594 L4.33398438,12.6132812 C4.11914062,12.828125 4.01171875,13.078776 4.01171875,13.3652344 C4.01171875,13.6588542 4.10481771,13.8969727 4.29101562,14.0795898 C4.47721354,14.262207 4.7171224,14.3535156 5.01074219,14.3535156 C5.29003906,14.3535156 5.52278646,14.2604167 5.70898438,14.0742188 L7.81445312,11.8828125 L9.28613281,10.1855469 L9.20019531,12.4199219 L9.20019531,25.2783203 C9.20019531,25.5647786 9.29329427,25.8046875 9.47949219,25.9980469 C9.6656901,26.1914062 9.90559896,26.2880859 10.1992188,26.2880859 Z M21.8867188,26.2880859 C22.1731771,26.2880859 22.4238281,26.1770833 22.6386719,25.9550781 L27.7626953,20.7128906 C27.9703776,20.4980469 28.0742188,20.2509766 28.0742188,19.9716797 C28.0742188,19.6780599 27.9811198,19.4399414 27.7949219,19.2573242 C27.608724,19.074707 27.3688151,18.9833984 27.0751953,18.9833984 C26.8030599,18.9833984 26.5738932,19.0764974 26.3876953,19.2626953 L24.2822266,21.4433594 L22.8105469,23.1513672 L22.8964844,20.90625 L22.8964844,8.05859375 C22.8964844,7.77213542 22.8015951,7.53401693 22.6118164,7.34423828 C22.4220378,7.15445964 22.1839193,7.05957031 21.8974609,7.05957031 C21.6038411,7.05957031 21.3621419,7.15445964 21.1723633,7.34423828 C20.9825846,7.53401693 20.8876953,7.77213542 20.8876953,8.05859375 L20.8876953,20.90625 L20.9736328,23.1513672 L19.5019531,21.4433594 L17.3964844,19.2626953 C17.2102865,19.0764974 16.9775391,18.9833984 16.6982422,18.9833984 C16.4046224,18.9833984 16.1665039,19.074707 15.9838867,19.2573242 C15.8012695,19.4399414 15.7099609,19.6780599 15.7099609,19.9716797 C15.7099609,20.2509766 15.8138021,20.4980469 16.0214844,20.7128906 L21.1347656,25.9550781 C21.3496094,26.1770833 21.6002604,26.2880859 21.8867188,26.2880859 Z" id="􀄬" fill="#313131" fill-rule="nonzero"></path>
    </g>
</svg>