<?xml version="1.0" encoding="UTF-8"?>
<svg width="32px" height="32px" viewBox="0 0 32 32" version="1.1" xmlns="http://www.w3.org/2000/svg" xmlns:xlink="http://www.w3.org/1999/xlink">
    <title>sort</title>
    <g id="sort">
        <path id="􀄬-copy" d="M16.199 25.288 C16.493 25.288 16.733 25.191 16.919 24.998 17.105 24.805 17.198 24.565 17.198 24.278 L17.198 11.42 17.112 9.186 18.584 10.883 20.689 13.074 C20.883 13.26 21.116 13.354 21.388 13.354 21.681 13.354 21.921 13.262 22.107 13.08 22.294 12.897 22.387 12.659 22.387 12.365 22.387 12.079 22.283 11.828 22.075 11.613 L16.951 6.382 C16.743 6.167 16.495 6.058 16.205 6.054 15.915 6.051 15.662 6.16 15.447 6.382 L10.334 11.613 C10.119 11.828 10.012 12.079 10.012 12.365 10.012 12.659 10.105 12.897 10.291 13.08 10.477 13.262 10.717 13.354 11.011 13.354 11.29 13.354 11.523 13.26 11.709 13.074 L13.814 10.883 15.286 9.186 15.2 11.42 15.2 24.278 C15.2 24.565 15.293 24.805 15.479 24.998 15.666 25.191 15.906 25.288 16.199 25.288 Z" fill="#313131" fill-opacity="1" stroke="none"/>
    </g>
</svg>
