<?xml version="1.0" encoding="UTF-8"?>
<svg width="32px" height="32px" viewBox="0 0 32 32" version="1.1" xmlns="http://www.w3.org/2000/svg" xmlns:xlink="http://www.w3.org/1999/xlink">
    <title>sort</title>
    <g id="sort">
        <path id="􀄬" d="M15.887 25.288 C16.173 25.288 16.424 25.177 16.639 24.955 L21.763 19.713 C21.97 19.498 22.074 19.251 22.074 18.972 22.074 18.678 21.981 18.44 21.795 18.257 21.609 18.075 21.369 17.983 21.075 17.983 20.803 17.983 20.574 18.076 20.388 18.263 L18.282 20.443 16.811 22.151 16.896 19.906 16.896 7.059 C16.896 6.772 16.802 6.534 16.612 6.344 16.422 6.154 16.184 6.06 15.897 6.06 15.604 6.06 15.362 6.154 15.172 6.344 14.983 6.534 14.888 6.772 14.888 7.059 L14.888 19.906 14.974 22.151 13.502 20.443 11.396 18.263 C11.21 18.076 10.978 17.983 10.698 17.983 10.405 17.983 10.167 18.075 9.984 18.257 9.801 18.44 9.71 18.678 9.71 18.972 9.71 19.251 9.814 19.498 10.021 19.713 L15.135 24.955 C15.35 25.177 15.6 25.288 15.887 25.288 Z" fill="#313131" fill-opacity="1" stroke="none"/>
    </g>
</svg>
