<?xml version="1.0" encoding="UTF-8"?>
<svg version="1.1" xmlns="http://www.w3.org/2000/svg" xmlns:xlink="http://www.w3.org/1999/xlink">
    <title>webarea</title>
    <defs></defs>
    <g id="webarea" fill-rule="nonzero">
        <g id="Group">
            <g id="Shape">
                <path d="M57.47,29.196 C57.47,44.578 45.001,57.048 29.619,57.048 C14.239,57.048 1.771,44.578 1.771,29.196 C1.771,13.818 14.239,1.349 29.619,1.349 C45.001,1.349 57.47,13.818 57.47,29.196 Z" fill="#FFFFFF"></path>
                <path d="M0.556,29.196 C0.556,13.146 13.568,0.136 29.619,0.133 C45.67,0.135 58.682,13.146 58.682,29.196 C58.682,45.248 45.669,58.259 29.619,58.259 C13.565,58.26 0.556,45.248 0.556,29.196 Z M2.985,29.196 C3.01,43.906 14.909,55.805 29.618,55.832 C44.328,55.806 56.227,43.906 56.254,29.196 C56.228,14.489 44.328,2.588 29.618,2.563 C14.909,2.588 3.01,14.489 2.985,29.196 Z" fill="#00AEEF"></path>
            </g>
            <g transform="translate(13.000000, 1.000000)" id="Shape">
                <path d="M10.975,55.419 C5.338,48.46 1.85,38.833 1.85,28.196 C1.85,17.573 5.326,7.956 10.959,0.997" fill="#FFFFFF"></path>
                <path d="M0.633,28.196 C0.635,17.308 4.191,7.426 10.016,0.234 L11.901,1.761 C6.457,8.484 3.061,17.84 3.061,28.196 C3.061,38.567 6.466,47.931 11.916,54.654 L11.918,54.656 L10.029,56.182 C4.204,48.989 0.636,39.098 0.633,28.196 Z" fill="#00AEEF"></path>
            </g>
            <g transform="translate(33.000000, 1.000000)" id="Shape">
                <path d="M1.624,55.419 C7.261,48.46 10.749,38.833 10.749,28.196 C10.749,17.573 7.271,7.956 1.641,0.997" fill="#FFFFFF"></path>
                <path d="M0.679,54.655 C6.129,47.931 9.536,38.566 9.534,28.197 C9.536,17.84 6.138,8.483 0.697,1.761 L2.584,0.233 C8.401,7.427 11.96,17.307 11.963,28.196 C11.96,39.096 8.393,48.988 2.567,56.184 L0.679,54.655 Z" fill="#00AEEF"></path>
            </g>
            <g transform="translate(28.000000, 1.000000)" id="Shape">
                <path d="M1.619,0.017 L1.619,55.998" fill="#FFFFFF"></path>
                <polygon fill="#00AEEF" points="0.404 55.997 0.404 0.017 2.831 0.017 2.831 55.997"></polygon>
            </g>
            <g transform="translate(1.000000, 27.000000)" id="Shape">
                <path d="M0.771,2.196 L56.47,2.196" fill="#FFFFFF"></path>
                <polygon fill="#00AEEF" points="0.77 3.412 0.77 0.982 56.47 0.982 56.47 3.412"></polygon>
            </g>
            <g transform="translate(5.000000, 13.000000)" id="Shape">
                <path d="M0.639,2.093 L48.201,2.093" fill="#FFFFFF"></path>
                <polygon fill="#00AEEF" points="0.637 3.307 0.637 0.879 48.199 0.879 48.199 3.307"></polygon>
            </g>
            <g transform="translate(5.000000, 42.000000)" id="Shape">
                <path d="M47.962,1.278 L0.394,1.278" fill="#FFFFFF"></path>
                <polygon fill="#00AEEF" points="0.394 2.492 0.394 0.063 47.96 0.063 47.96 2.492"></polygon>
            </g>
        </g>
    </g>
</svg>
